<?xml version="1.0" encoding="utf-8"?>
<!-- Generator: Adobe Illustrator 16.0.3, SVG Export Plug-In . SVG Version: 6.00 Build 0)  -->
<!DOCTYPE svg PUBLIC "-//W3C//DTD SVG 1.1//EN" "http://www.w3.org/Graphics/SVG/1.1/DTD/svg11.dtd">
<svg version="1.1" id="Layer_1" xmlns="http://www.w3.org/2000/svg" xmlns:xlink="http://www.w3.org/1999/xlink" x="0px" y="0px"
	 width="22px" height="22px" viewBox="0 0 22 22" enable-background="new 0 0 22 22" xml:space="preserve">
<path fill="#FFFFFF" d="M20.984,2.728c-0.838,0.498-1.766,0.858-2.754,1.054c-0.791-0.843-1.918-1.37-3.166-1.37
	c-2.393,0-4.336,1.941-4.336,4.337c0,0.34,0.039,0.67,0.113,0.988C7.238,7.555,4.043,5.829,1.904,3.205
	c-0.373,0.64-0.59,1.386-0.59,2.182c0,1.504,0.768,2.831,1.932,3.607C2.535,8.973,1.867,8.777,1.281,8.452v0.056
	c0,2.1,1.494,3.853,3.479,4.252c-0.363,0.099-0.746,0.152-1.143,0.152c-0.279,0-0.551-0.027-0.816-0.079
	c0.553,1.724,2.154,2.978,4.051,3.014c-1.484,1.162-3.354,1.855-5.387,1.855c-0.35,0-0.695-0.021-1.033-0.06
	c1.92,1.229,4.199,1.946,6.648,1.946c7.977,0,12.336-6.606,12.336-12.339c0-0.187-0.002-0.375-0.01-0.561
	c0.846-0.611,1.582-1.375,2.162-2.244c-0.777,0.345-1.611,0.577-2.49,0.682C19.975,4.591,20.66,3.741,20.984,2.728"/>
</svg>
